<?xml version="1.0" encoding="UTF-8"?>
<svg version="1.1" xmlns="http://www.w3.org/2000/svg" width="306" height="283">
<path d="M0 0 C100.98 0 201.96 0 306 0 C306 93.39 306 186.78 306 283 C205.02 283 104.04 283 0 283 C0 189.61 0 96.22 0 0 Z " fill="#1A472A" transform="translate(0,0)"/>
<path d="M0 0 C4.03958287 0.84157976 5.29690623 2.53813366 8 5.625 C13.33178721 15.00081225 17.00958927 25.29495811 20 35.625 C20.19754883 36.27178711 20.39509766 36.91857422 20.59863281 37.58496094 C25.67416419 54.60585093 26.33680007 74.38329963 22 91.625 C21.83387207 92.30046875 21.66774414 92.9759375 21.49658203 93.671875 C15.70948305 115.90150592 2.01616425 134.53754722 -17.375 146.9375 C-31.23901021 155.04005926 -44.97204042 160.01802402 -61 160.625 C-62.03769531 160.66625 -63.07539063 160.7075 -64.14453125 160.75 C-80.83336543 161.09277451 -95.194652 155.52433969 -107.62109375 144.24609375 C-109.79549169 142.07883669 -111.90669453 139.87023893 -114 137.625 C-115.32871177 136.28706107 -116.66070106 134.95234091 -118 133.625 C-124.00332634 140.96239886 -126.96409677 149.08164066 -127.4375 158.5625 C-127.68293541 162.42252966 -127.905467 163.48725192 -130.1875 166.8125 C-133.5747155 168.99537221 -135.05198625 169.44750286 -139 168.625 C-141.875 166.875 -141.875 166.875 -144 163.625 C-145.83135161 152.2049678 -142.39107513 139.17436866 -136 129.625 C-134.23685717 127.72315305 -132.44348326 125.84900326 -130.625 124 C-127.22268324 120.63048494 -127.22268324 120.63048494 -125.54296875 116.328125 C-125.78554645 113.95142305 -125.78554645 113.95142305 -127 110.625 C-131.11128752 94.87964356 -127.9967856 78.29133658 -120.25 64.3125 C-116.74420963 58.90099794 -112.50674172 54.21706729 -108 49.625 C-107.38511719 48.985625 -106.77023438 48.34625 -106.13671875 47.6875 C-94.57668203 36.59778597 -79.24722078 33.38203099 -64.05859375 30.484375 C-40.45746019 25.97444288 -21.71942732 21.30434551 -5.375 2.625 C-3 0.625 -3 0.625 0 0 Z " fill="#1C482B" transform="translate(213,62.375)"/>
<path d="M0 0 C4.03958287 0.84157976 5.29690623 2.53813366 8 5.625 C13.33178721 15.00081225 17.00958927 25.29495811 20 35.625 C20.19754883 36.27178711 20.39509766 36.91857422 20.59863281 37.58496094 C25.67416419 54.60585093 26.33680007 74.38329963 22 91.625 C21.83387207 92.30046875 21.66774414 92.9759375 21.49658203 93.671875 C15.70948305 115.90150592 2.01616425 134.53754722 -17.375 146.9375 C-31.23901021 155.04005926 -44.97204042 160.01802402 -61 160.625 C-62.03769531 160.66625 -63.07539063 160.7075 -64.14453125 160.75 C-80.83336543 161.09277451 -95.194652 155.52433969 -107.62109375 144.24609375 C-109.79549169 142.07883669 -111.90669453 139.87023893 -114 137.625 C-115.32871177 136.28706107 -116.66070106 134.95234091 -118 133.625 C-124.00332634 140.96239886 -126.96409677 149.08164066 -127.4375 158.5625 C-127.68293541 162.42252966 -127.905467 163.48725192 -130.1875 166.8125 C-133.5747155 168.99537221 -135.05198625 169.44750286 -139 168.625 C-141.875 166.875 -141.875 166.875 -144 163.625 C-145.83135161 152.2049678 -142.39107513 139.17436866 -136 129.625 C-134.23685717 127.72315305 -132.44348326 125.84900326 -130.625 124 C-127.22268324 120.63048494 -127.22268324 120.63048494 -125.54296875 116.328125 C-125.78554645 113.95142305 -125.78554645 113.95142305 -127 110.625 C-131.11128752 94.87964356 -127.9967856 78.29133658 -120.25 64.3125 C-116.74420963 58.90099794 -112.50674172 54.21706729 -108 49.625 C-107.38511719 48.985625 -106.77023438 48.34625 -106.13671875 47.6875 C-94.57668203 36.59778597 -79.24722078 33.38203099 -64.05859375 30.484375 C-40.45746019 25.97444288 -21.71942732 21.30434551 -5.375 2.625 C-3 0.625 -3 0.625 0 0 Z M-3 22.625 C-4.2375 23.8315625 -4.2375 23.8315625 -5.5 25.0625 C-17.79121307 35.37833954 -31.2393452 39.53739754 -46.64013672 43.04785156 C-49.1542601 43.62538481 -49.1542601 43.62538481 -52.140625 44.69921875 C-55.91977582 45.92279627 -59.70288798 46.42748042 -63.625 47 C-80.30080478 49.64477756 -93.14020589 55.20680299 -104 68.625 C-108.2478982 75.37883903 -112.11988194 82.69949429 -112.1328125 90.8125 C-112.13410156 91.59367187 -112.13539062 92.37484375 -112.13671875 93.1796875 C-112.13285156 93.98664063 -112.12898438 94.79359375 -112.125 95.625 C-112.12886719 96.43195313 -112.13273437 97.23890625 -112.13671875 98.0703125 C-112.13542969 98.85148437 -112.13414063 99.63265625 -112.1328125 100.4375 C-112.13168457 101.14519531 -112.13055664 101.85289062 -112.12939453 102.58203125 C-111.99511502 104.70212733 -111.57716498 106.58457563 -111 108.625 C-89.15681143 103.94587852 -70.41383817 97.07024711 -52.890625 82.921875 C-50.12415312 81.02421247 -48.27391384 81.14755423 -45 81.625 C-41.97647589 83.69372702 -41.14212062 84.89860569 -40.4375 88.5 C-41.38075237 93.74029096 -44.88026702 96.76298334 -48.953125 99.8984375 C-65.90092835 110.70165812 -83.54316921 117.64955263 -103 122.625 C-102.12605804 128.47776282 -97.31640901 131.98913431 -93 135.625 C-79.23726637 144.60399725 -64.37441926 146.45492851 -48.33984375 143.50390625 C-28.54344665 138.29432806 -11.46800444 125.21446014 -1 107.625 C11.26315416 84.33503147 10.27589655 57.8756165 2.69140625 33.16015625 C1.61124811 29.90894782 0.48747169 26.71631021 -1 23.625 C-1.99 23.13 -1.99 23.13 -3 22.625 Z " fill="#F8FAF8" transform="translate(213,62.375)"/>
<path d="M0 0 C4.455 2.97 4.455 2.97 9 6 C4.84384713 7.03903822 2.99197507 7.06452668 -1 6 C-0.67 4.02 -0.34 2.04 0 0 Z " fill="#2A4C36" transform="translate(105,206)"/>
<path d="M0 0 C0 0.66 0 1.32 0 2 C-1.60256108 2.50512244 -3.20711792 3.00391627 -4.8125 3.5 C-6.15248047 3.91765625 -6.15248047 3.91765625 -7.51953125 4.34375 C-10 5 -10 5 -13 5 C-13 3.68 -13 2.36 -13 1 C-12.34 1 -11.68 1 -11 1 C-11 1.66 -11 2.32 -11 3 C-10.01 2.34 -9.02 1.68 -8 1 C-5.2133692 0.3033423 -2.88120712 0 0 0 Z " fill="#365340" transform="translate(115,166)"/>
<path d="M0 0 C2.475 0.99 2.475 0.99 5 2 C2.31158141 4.25245881 0.35358125 5.88213958 -3 7 C-1.125 1.125 -1.125 1.125 0 0 Z " fill="#2E503A" transform="translate(147,149)"/>
<path d="M0 0 C1.15941038 3.47823115 0.70820884 5.45895578 0 9 C-1.32 9 -2.64 9 -4 9 C-2.94124926 5.59687262 -1.99097846 2.98646769 0 0 Z " fill="#365742" transform="translate(108,133)"/>
<path d="M0 0 C1.50303217 2.38716874 2.01411453 3.71065206 1.875 6.5625 C0.82403075 9.49020006 -0.38722542 10.39862203 -3 12 C-2.67 10.68 -2.34 9.36 -2 8 C-1.34 8 -0.68 8 0 8 C0 5.36 0 2.72 0 0 Z " fill="#415B4B" transform="translate(86,173)"/>
<path d="M0 0 C0 0.99 0 1.98 0 3 C-2.31 4.32 -4.62 5.64 -7 7 C-7.66 6.34 -8.32 5.68 -9 5 C-6.03 3.35 -3.06 1.7 0 0 Z " fill="#365542" transform="translate(198,207)"/>
<path d="M0 0 C0.99 0.99 1.98 1.98 3 3 C1.35 4.32 -0.3 5.64 -2 7 C-2.125 4.625 -2.125 4.625 -2 2 C-1.34 1.34 -0.68 0.68 0 0 Z " fill="#244B33" transform="translate(195,184)"/>
<path d="M0 0 C1.98 0 3.96 0 6 0 C4.35 1.65 2.7 3.3 1 5 C0.34 4.67 -0.32 4.34 -1 4 C-0.67 2.68 -0.34 1.36 0 0 Z " fill="#294C37" transform="translate(106,106)"/>
<path d="M0 0 C0.66 0.33 1.32 0.66 2 1 C0.3125 3.0625 0.3125 3.0625 -2 5 C-4.75 4.75 -4.75 4.75 -7 4 C-4.66603411 2.44402274 -2.57343171 1.07918104 0 0 Z " fill="#43614D" transform="translate(187,213)"/>
<path d="M0 0 C0 3 0 3 -2 5.1875 C-2.66 5.785625 -3.32 6.38375 -4 7 C-4.99 6.67 -5.98 6.34 -7 6 C-4.69 4.02 -2.38 2.04 0 0 Z " fill="#365442" transform="translate(210,197)"/>
</svg>
